# xmcd
#
# Track frame offsets:
#	150
#	19163
#	35273
#	53181
#	72518
#	88747
#	109523
#	126342
#	145383
#	158922
#	172510
#	188970
#
# Disc length: 2724 seconds
#
# Revision: 1
# Processed by: cddbd v1.5.1PL2 Copyright (c) Steve Scherf et al.
# Submitted via: audiograbber 1.83.01
#
DISCID=a00aa20c
DTITLE=Suncane skale 05 - Pjesme ljeta CD1 - Suncane skale 2005
DYEAR=2005
DGENRE=Pop
TTITLE0=TONY CETINSKI - Covjek od leda
TTITLE1=ANDREA - Planina
TTITLE2=CRVENA JABUKA - Ti mi dusu uzimas
TTITLE3=MARIA BACHVAROVA - Trazim te
TTITLE4=TUTTI FRUTTI BEND - Uvijek sve ti oprostim
TTITLE5=IVANA BANFIC - Never Know
TTITLE6=NEDA UKRADEN - Ako se ikada sretnemo
TTITLE7=KAROLINA - Ruza ruzica
TTITLE8=BOJAN BJELIC - Racun ljubavi
TTITLE9=SASA LENDERO - Poput leptira
TTITLE10=GORAN KARAN - Ruzo moja bila
TTITLE11=ZANAMARI - S'usana mi citaj
EXTD=
EXTT0=
EXTT1=
EXTT2=
EXTT3=
EXTT4=
EXTT5=
EXTT6=
EXTT7=
EXTT8=
EXTT9=
EXTT10=
EXTT11=
PLAYORDER=
